<?xml version="1.0" encoding="UTF-8" standalone="no"?>
<!-- Created with Inkscape (http://www.inkscape.org/) -->
<svg
   xmlns:dc="http://purl.org/dc/elements/1.1/"
   xmlns:cc="http://creativecommons.org/ns#"
   xmlns:rdf="http://www.w3.org/1999/02/22-rdf-syntax-ns#"
   xmlns:svg="http://www.w3.org/2000/svg"
   xmlns="http://www.w3.org/2000/svg"
   xmlns:sodipodi="http://sodipodi.sourceforge.net/DTD/sodipodi-0.dtd"
   xmlns:inkscape="http://www.inkscape.org/namespaces/inkscape"
   width="450"
   height="670"
   id="svg2"
   sodipodi:version="0.32"
   inkscape:version="0.46"
   version="1.0"
   sodipodi:docname="desigualdad del triángulo.svg"
   inkscape:output_extension="org.inkscape.output.svg.inkscape">
  <defs
     id="defs4">
    <inkscape:perspective
       sodipodi:type="inkscape:persp3d"
       inkscape:vp_x="0 : 526.18109 : 1"
       inkscape:vp_y="0 : 1000 : 0"
       inkscape:vp_z="744.09448 : 526.18109 : 1"
       inkscape:persp3d-origin="372.04724 : 350.78739 : 1"
       id="perspective10" />
  </defs>
  <sodipodi:namedview
     id="base"
     pagecolor="#ffffff"
     bordercolor="#666666"
     borderopacity="1.0"
     inkscape:pageopacity="0.0"
     inkscape:pageshadow="2"
     inkscape:zoom="0.7"
     inkscape:cx="-97.951197"
     inkscape:cy="327.41978"
     inkscape:document-units="px"
     inkscape:current-layer="layer1"
     showgrid="true"
     gridtolerance="11"
     inkscape:window-width="1280"
     inkscape:window-height="728"
     inkscape:window-x="0"
     inkscape:window-y="11">
    <inkscape:grid
       type="xygrid"
       id="grid2397"
       visible="true"
       enabled="true"
       spacingx="20px"
       spacingy="20px" />
  </sodipodi:namedview>
  <metadata
     id="metadata7">
    <rdf:RDF>
      <cc:Work
         rdf:about="">
        <dc:format>image/svg+xml</dc:format>
        <dc:type
           rdf:resource="http://purl.org/dc/dcmitype/StillImage" />
      </cc:Work>
    </rdf:RDF>
  </metadata>
  <g
     inkscape:label="Capa 1"
     inkscape:groupmode="layer"
     id="layer1"
     transform="translate(-56.816963,-173.6546)">
    <path
       style="font-size:72px;font-style:normal;font-variant:normal;font-weight:normal;font-stretch:normal;text-align:start;line-height:100%;writing-mode:lr-tb;text-anchor:start;fill:#000000;fill-opacity:1;stroke:none;stroke-width:1px;stroke-linecap:butt;stroke-linejoin:miter;stroke-opacity:1;font-family:Georgia;-inkscape-font-specification:Georgia"
       d="M 129.81892,224.6094 C 129.81887,228.8516 129.02199,232.53128 127.42829,235.64846 C 125.8345,238.76566 123.76028,241.32034 121.20563,243.31252 C 118.62747,245.30471 115.73294,246.79299 112.52204,247.77736 C 109.31107,248.76174 105.99467,249.25393 102.57282,249.25393 L 81.900945,249.25393 L 81.900945,246.75782 C 82.580628,246.75784 83.465393,246.69338 84.555242,246.56447 C 85.645078,246.43556 86.365781,246.28909 86.717351,246.12502 C 87.420467,245.82034 87.930232,245.36917 88.246648,244.77151 C 88.563044,244.17385 88.721247,243.45315 88.721257,242.6094 L 88.721257,206.6094 C 88.721247,205.81256 88.586482,205.09771 88.31696,204.46486 C 88.04742,203.8321 87.514217,203.32819 86.717351,202.95315 C 85.990781,202.60163 85.205626,202.34382 84.361882,202.17971 C 83.518127,202.01569 82.791566,201.91021 82.182195,201.86329 L 82.182195,199.36721 L 103.97907,199.36721 C 106.97904,199.36726 109.93217,199.83015 112.83845,200.75588 C 115.74466,201.6817 118.27591,202.92974 120.4322,204.50002 C 123.36184,206.58599 125.65872,209.31646 127.32283,212.69143 C 128.98684,216.06646 129.81887,220.03911 129.81892,224.6094 L 129.81892,224.6094 z M 121.20563,224.57424 C 121.20559,221.22271 120.76028,218.19341 119.8697,215.48635 C 118.97903,212.77935 117.67825,210.41803 115.96735,208.40236 C 114.35013,206.48053 112.3638,204.96882 110.00837,203.86721 C 107.65287,202.76569 105.03373,202.21491 102.15095,202.21486 C 101.18999,202.21491 100.106,202.23248 98.898992,202.2676 C 97.691941,202.3028 96.795458,202.3321 96.209538,202.35549 L 96.209538,240.71096 C 96.209521,242.84377 96.830614,244.32034 98.07282,245.14065 C 99.314986,245.96096 101.22514,246.37112 103.80329,246.37111 C 106.77983,246.37112 109.38139,245.84377 111.60798,244.78907 C 113.83451,243.7344 115.63919,242.26955 117.02204,240.39454 C 118.47513,238.4258 119.53567,236.14651 120.20368,233.55666 C 120.87161,230.96684 121.20559,227.9727 121.20563,224.57424 L 121.20563,224.57424 z M 165.92439,241.09768 C 164.47123,243.8633 162.52592,246.06643 160.08845,247.70704 C 157.65093,249.34768 154.85015,250.16799 151.68611,250.16799 C 148.89703,250.16799 146.45367,249.67579 144.35603,248.69143 C 142.25836,247.70704 140.52985,246.37112 139.17048,244.68361 C 137.8111,242.99612 136.79743,241.02737 136.12947,238.77736 C 135.46149,236.52738 135.12751,234.14847 135.12751,231.64065 C 135.12751,229.39067 135.48493,227.18168 136.19978,225.01369 C 136.91462,222.84574 137.96345,220.89458 139.34626,219.16018 C 140.68219,217.49615 142.34039,216.15435 144.32087,215.13478 C 146.30133,214.11529 148.52203,213.60553 150.98298,213.60549 C 153.51421,213.60553 155.68218,214.00396 157.48689,214.80079 C 159.29155,215.59771 160.75639,216.68755 161.88142,218.07032 C 162.95951,219.38286 163.76225,220.92973 164.28962,222.71096 C 164.81693,224.49223 165.08061,226.42582 165.08064,228.51174 L 165.08064,230.83204 L 142.12361,230.83204 C 142.1236,233.1055 142.34039,235.168 142.774,237.01954 C 143.20758,238.87112 143.89313,240.50002 144.83064,241.90627 C 145.74469,243.26565 146.94,244.33792 148.41658,245.12306 C 149.89312,245.90823 151.65093,246.3008 153.69001,246.30079 C 155.77593,246.3008 157.57475,245.81448 159.0865,244.84181 C 160.59819,243.86917 162.05717,242.11722 163.46345,239.58596 L 165.92439,241.09768 z M 158.15486,227.87893 C 158.15483,226.56645 158.0435,225.1602 157.82087,223.66018 C 157.59819,222.1602 157.24077,220.9063 156.74861,219.89846 C 156.20952,218.82036 155.47124,217.94146 154.53376,217.26174 C 153.59624,216.58208 152.38921,216.24223 150.91267,216.24221 C 148.45172,216.24223 146.4068,217.26763 144.7779,219.31838 C 143.14899,221.36919 142.26422,224.2227 142.12361,227.87893 L 158.15486,227.87893 z M 192.88923,232.27346 C 193.85014,233.11722 194.58842,234.08988 195.10408,235.19143 C 195.61967,236.293 195.87748,237.64066 195.87751,239.2344 C 195.87748,242.44534 194.67631,245.07034 192.274,247.1094 C 189.87163,249.14846 186.76031,250.16799 182.94001,250.16799 C 180.92437,250.16799 179.06695,249.80471 177.36775,249.07815 C 175.66852,248.35157 174.45563,247.68362 173.72908,247.07424 L 173.02595,249.3594 L 170.38923,249.3594 L 170.03767,237.30079 L 172.46345,237.30079 C 172.65095,238.21488 173.04938,239.28127 173.65876,240.50002 C 174.26813,241.71877 175.00641,242.82034 175.87361,243.80471 C 176.78766,244.83596 177.88336,245.70315 179.16072,246.40627 C 180.43805,247.1094 181.87359,247.46096 183.46736,247.46096 C 185.71734,247.46096 187.45171,246.95119 188.67048,245.93166 C 189.88921,244.91213 190.49858,243.45315 190.49861,241.55471 C 190.49858,240.57034 190.30522,239.72073 189.91853,239.00588 C 189.53179,238.29104 188.96343,237.66409 188.21345,237.12502 C 187.43999,236.58597 186.49078,236.09964 185.36579,235.66603 C 184.24078,235.23246 182.98687,234.80472 181.60408,234.38282 C 180.5025,234.05472 179.27789,233.60354 177.93025,233.02931 C 176.58258,232.45512 175.42829,231.78128 174.46736,231.00782 C 173.4361,230.18753 172.59235,229.17973 171.93611,227.9844 C 171.27985,226.78911 170.95173,225.38286 170.95173,223.76565 C 170.95173,220.92973 172.00641,218.5274 174.11579,216.55861 C 176.22516,214.5899 179.04938,213.60553 182.58845,213.60549 C 183.94781,213.60553 185.33648,213.78131 186.75447,214.13282 C 188.17241,214.48443 189.32671,214.90631 190.21736,215.39846 L 191.02595,213.57032 L 193.5572,213.57032 L 194.08454,224.71486 L 191.65876,224.71486 C 191.16655,222.23051 190.10601,220.20902 188.47712,218.65041 C 186.8482,217.09185 184.86187,216.31255 182.51814,216.31252 C 180.59625,216.31255 179.08453,216.79301 177.98298,217.75393 C 176.88141,218.7149 176.33063,219.87505 176.33064,221.2344 C 176.33063,222.28911 176.51227,223.16801 176.87556,223.87111 C 177.23883,224.57425 177.78375,225.17192 178.51033,225.66407 C 179.21344,226.13286 180.0982,226.57231 181.16462,226.98244 C 182.23101,227.39262 183.54937,227.8555 185.1197,228.37111 C 186.66656,228.86332 188.12554,229.43753 189.49665,230.09377 C 190.86772,230.75003 191.99858,231.4766 192.88923,232.27346 L 192.88923,232.27346 z M 217.92048,249.25393 L 201.15095,249.25393 L 201.15095,246.93361 C 201.69001,246.88674 202.24665,246.83987 202.82087,246.79299 C 203.39509,246.74612 203.89313,246.65237 204.31501,246.51174 C 204.97126,246.3008 205.45758,245.93166 205.774,245.40431 C 206.0904,244.87698 206.2486,244.19143 206.24861,243.34768 L 206.24861,221.93752 C 206.2486,221.18755 206.07868,220.50199 205.73884,219.88088 C 205.39899,219.25982 204.92438,218.73833 204.31501,218.31643 C 203.8697,218.03521 203.22516,217.79497 202.38142,217.59572 C 201.53767,217.39654 200.76423,217.27348 200.06111,217.22657 L 200.06111,214.94143 L 212.29548,214.16799 L 212.78767,214.66018 L 212.78767,242.92579 C 212.78766,243.74612 212.94586,244.4258 213.26228,244.96486 C 213.57867,245.50393 214.07672,245.90237 214.75642,246.16018 C 215.27203,246.37112 215.77593,246.54103 216.26814,246.66994 C 216.76031,246.79885 217.31109,246.88674 217.92048,246.93361 L 217.92048,249.25393 z M 213.49079,200.49221 C 213.49078,201.82819 213.05133,202.9942 212.17244,203.99026 C 211.29352,204.98639 210.20953,205.48444 208.92048,205.4844 C 207.72516,205.48444 206.68805,205.00983 205.80915,204.06056 C 204.93024,203.1114 204.49079,202.02741 204.49079,200.80861 C 204.49079,199.5196 204.93024,198.3946 205.80915,197.43361 C 206.68805,196.47272 207.72516,195.99226 208.92048,195.99221 C 210.25641,195.99226 211.35211,196.44343 212.20759,197.34572 C 213.06305,198.24812 213.49078,199.29694 213.49079,200.49221 L 213.49079,200.49221 z M 251.88142,245.66799 C 252.81889,246.55862 253.55717,247.56643 254.09626,248.69143 C 254.63529,249.81643 254.90482,251.21096 254.90486,252.87502 C 254.90482,254.53907 254.54154,256.10352 253.81501,257.56838 C 253.08842,259.03321 251.98686,260.30469 250.51033,261.38282 C 248.93998,262.48438 247.06499,263.33984 244.88533,263.94923 C 242.70562,264.55859 240.01031,264.86329 236.79939,264.86329 C 231.54938,264.86329 227.6236,264.09571 225.02204,262.56056 C 222.42048,261.0254 221.1197,258.78125 221.1197,255.82815 C 221.1197,253.43752 222.0572,251.55079 223.9322,250.16799 C 225.80719,248.78518 228.19782,248.03518 231.10408,247.91799 L 231.10408,247.42579 C 230.40094,247.21487 229.67438,246.95119 228.92439,246.63478 C 228.17438,246.31838 227.52985,245.94924 226.99079,245.52736 C 226.38141,245.03518 225.88923,244.4551 225.51423,243.78713 C 225.13923,243.11917 224.95173,242.293 224.95173,241.30861 C 224.95173,240.06644 225.39118,238.92386 226.27009,237.88088 C 227.14899,236.83792 228.47907,235.94144 230.26033,235.19143 L 230.26033,234.66407 C 228.01032,233.60941 226.26423,232.2559 225.02204,230.60353 C 223.77985,228.95121 223.15876,227.0352 223.15876,224.85549 C 223.15876,221.57426 224.38337,218.87896 226.83259,216.76954 C 229.2818,214.66021 232.41656,213.60553 236.23689,213.60549 C 237.29156,213.60553 238.34039,213.71098 239.38337,213.9219 C 240.42632,214.13287 241.48687,214.4024 242.56501,214.73049 L 254.65876,214.73049 L 254.65876,218.10549 L 246.50251,218.10549 L 246.50251,218.31643 C 247.36967,219.32426 248.0142,220.43755 248.43611,221.65627 C 248.85795,222.87505 249.06889,224.07036 249.06892,225.24221 C 249.06889,228.2891 247.83256,230.86723 245.35994,232.97657 C 242.88726,235.08597 240.01031,236.14066 236.72908,236.14065 L 232.47517,236.14065 C 231.93609,236.32816 231.3736,236.668 230.78767,237.16018 C 230.20172,237.65238 229.90875,238.32034 229.90876,239.16407 C 229.90875,240.03127 230.15485,240.69339 230.64704,241.15041 C 231.13922,241.60745 231.73688,241.918 232.44001,242.08204 C 233.11969,242.26955 233.9107,242.38675 234.81306,242.43361 C 235.71539,242.4805 236.64703,242.51565 237.60798,242.53907 C 238.63921,242.56252 240.05132,242.63284 241.84431,242.75002 C 243.63725,242.86721 244.90874,242.93752 245.65876,242.96096 C 246.73686,243.00784 247.82084,243.26565 248.91072,243.7344 C 250.00053,244.20315 250.99076,244.84768 251.88142,245.66799 L 251.88142,245.66799 z M 242.38923,225.10157 C 242.38921,222.35942 241.83257,220.17388 240.71931,218.54494 C 239.60601,216.91607 238.04156,216.10162 236.02595,216.10157 C 234.92437,216.10162 233.98101,216.33013 233.19587,216.78713 C 232.4107,217.24419 231.77203,217.89458 231.27986,218.73829 C 230.8111,219.51176 230.47711,220.44341 230.2779,221.53322 C 230.07867,222.62309 229.97907,223.74223 229.97908,224.89065 C 229.97907,227.49223 230.54742,229.61332 231.68415,231.25393 C 232.82086,232.89457 234.29156,233.71488 236.09626,233.71486 C 238.11187,233.71488 239.6646,232.90043 240.75447,231.27151 C 241.84429,229.64262 242.38921,227.58598 242.38923,225.10157 L 242.38923,225.10157 z M 249.13923,254.17579 C 249.1392,252.86329 248.83452,251.78517 248.22517,250.94143 C 247.61577,250.09768 246.68999,249.52346 245.44783,249.21877 C 244.79155,249.12502 243.4439,249.01954 241.40486,248.90236 C 239.36577,248.78518 236.99859,248.72657 234.30329,248.72657 C 231.77203,249.21877 229.97321,250.04494 228.90681,251.2051 C 227.8404,252.36525 227.30719,253.85939 227.3072,255.68752 C 227.30719,256.50782 227.48297,257.29298 227.83454,258.04298 C 228.1861,258.79298 228.79547,259.48438 229.66267,260.11721 C 230.48297,260.72656 231.58453,261.22461 232.96736,261.61134 C 234.35015,261.99804 236.03765,262.1914 238.02986,262.19142 C 241.47515,262.1914 244.18804,261.5293 246.16853,260.20509 C 248.14897,258.88086 249.1392,256.87111 249.13923,254.17579 L 249.13923,254.17579 z M 296.03767,248.62111 L 284.75251,249.39454 L 284.22517,248.90236 L 284.22517,244.50782 L 284.01423,244.50782 C 283.4517,245.09377 282.81889,245.72073 282.11579,246.38869 C 281.41264,247.05666 280.60405,247.66018 279.69001,248.19924 C 278.6353,248.83204 277.61577,249.31252 276.63142,249.64065 C 275.64703,249.96877 274.2525,250.13282 272.44783,250.13282 C 269.3775,250.13282 267.03961,249.13088 265.43415,247.12697 C 263.82868,245.12306 263.02594,242.21097 263.02595,238.39065 L 263.02595,221.7969 C 263.02594,220.95317 262.86774,220.24419 262.55134,219.66994 C 262.23493,219.09574 261.77204,218.59771 261.16267,218.17579 C 260.74079,217.89458 260.21345,217.6895 259.58064,217.56056 C 258.94782,217.43169 258.27986,217.3438 257.57673,217.2969 L 257.57673,215.01174 L 269.14314,214.16799 L 269.67048,214.66018 L 269.67048,238.74221 C 269.67047,241.25002 270.23297,243.13675 271.35798,244.40236 C 272.48297,245.66799 273.83062,246.3008 275.40095,246.30079 C 276.68999,246.3008 277.83843,246.10159 278.84626,245.70315 C 279.85405,245.30471 280.6978,244.83596 281.37751,244.2969 C 282.0103,243.80471 282.56694,243.28323 283.04744,242.73244 C 283.52788,242.18167 283.89702,241.6719 284.15486,241.20315 L 284.15486,221.55079 C 284.15483,220.77739 283.99077,220.09185 283.66267,219.49416 C 283.33452,218.89654 282.87749,218.38676 282.29158,217.96486 C 281.86968,217.68365 281.24272,217.51372 280.41072,217.4551 C 279.57866,217.39654 278.64702,217.3438 277.61579,217.2969 L 277.61579,215.01174 L 290.20173,214.16799 L 290.72908,214.66018 L 290.72908,242.18752 C 290.72904,242.9844 290.8931,243.66409 291.22126,244.22657 C 291.54935,244.78909 292.00638,245.26955 292.59236,245.66799 C 293.0142,245.9258 293.5181,246.09573 294.10408,246.17776 C 294.68997,246.25978 295.33451,246.31252 296.03767,246.33596 L 296.03767,248.62111 z M 333.19783,248.62111 C 332.09623,249.01954 331.12943,249.34181 330.29744,249.58791 C 329.46537,249.834 328.52201,249.95704 327.46736,249.95704 C 325.6392,249.95704 324.18022,249.52931 323.0904,248.67385 C 322.00054,247.81838 321.30327,246.57034 320.99861,244.92971 L 320.78767,244.92971 C 319.26421,246.61721 317.62945,247.90627 315.88337,248.7969 C 314.13726,249.68752 312.03375,250.13282 309.57283,250.13282 C 306.97125,250.13282 304.83258,249.33596 303.15681,247.74221 C 301.48103,246.14846 300.64314,244.06252 300.64314,241.4844 C 300.64314,240.14847 300.83064,238.95316 301.20564,237.89846 C 301.58063,236.84377 302.14313,235.89457 302.89314,235.05079 C 303.47907,234.34769 304.25251,233.72074 305.21345,233.16994 C 306.17438,232.61918 307.07672,232.17973 307.92048,231.85157 C 308.97516,231.45316 311.11383,230.71488 314.3365,229.63674 C 317.55913,228.55864 319.73296,227.71489 320.85798,227.10549 L 320.85798,223.62502 C 320.85796,223.32036 320.79351,222.73442 320.66462,221.86721 C 320.53569,221.00005 320.2603,220.17973 319.83845,219.40627 C 319.36968,218.53911 318.70757,217.78325 317.85212,217.13869 C 316.99663,216.49419 315.78375,216.17193 314.21345,216.1719 C 313.13531,216.17193 312.13336,216.35357 311.20759,216.71681 C 310.2818,217.08013 309.63141,217.46098 309.25642,217.8594 C 309.25641,218.32818 309.36774,219.01958 309.5904,219.93361 C 309.81305,220.84771 309.92438,221.69145 309.92439,222.46486 C 309.92438,223.2852 309.55524,224.0352 308.81697,224.71486 C 308.07867,225.39458 307.05329,225.73442 305.74079,225.7344 C 304.56891,225.73442 303.70759,225.3184 303.15681,224.48635 C 302.60602,223.65434 302.33063,222.7227 302.33064,221.69143 C 302.33063,220.61333 302.71149,219.58208 303.47322,218.59768 C 304.23493,217.61333 305.22516,216.73443 306.44392,215.96096 C 307.4986,215.30473 308.77594,214.7481 310.27595,214.29103 C 311.77594,213.83404 313.24078,213.60553 314.67048,213.60549 C 316.63921,213.60553 318.35601,213.74029 319.82087,214.00978 C 321.28569,214.27935 322.61577,214.85943 323.81111,215.75002 C 325.00639,216.61723 325.91459,217.79497 326.53572,219.28322 C 327.15678,220.77152 327.46733,222.68755 327.46736,225.03127 C 327.46733,228.38285 327.43217,231.35354 327.36189,233.94338 C 327.29155,236.53324 327.25639,239.3633 327.25642,242.43361 C 327.25639,243.34768 327.41459,244.07424 327.73103,244.61329 C 328.0474,245.15237 328.53373,245.6094 329.19001,245.9844 C 329.54154,246.19534 330.09818,246.31252 330.85994,246.33596 C 331.62162,246.3594 332.40092,246.37112 333.19783,246.37111 L 333.19783,248.62111 z M 320.92829,230.05861 C 318.93609,230.64457 317.18999,231.21878 315.69001,231.78127 C 314.19,232.34378 312.79547,233.04691 311.50642,233.89065 C 310.33453,234.68753 309.40875,235.63089 308.72908,236.72072 C 308.04938,237.81058 307.70953,239.1055 307.70954,240.60549 C 307.70953,242.5508 308.2193,243.98049 309.23884,244.89454 C 310.25836,245.80862 311.55328,246.26565 313.12361,246.26565 C 314.78765,246.26565 316.25249,245.86135 317.51814,245.05276 C 318.78374,244.24417 319.85015,243.28909 320.71736,242.18752 L 320.92829,230.05861 z M 352.88533,249.25393 L 335.97517,249.25393 L 335.97517,246.93361 C 336.51423,246.88674 337.08845,246.83401 337.69783,246.77541 C 338.3072,246.71681 338.8111,246.62893 339.20954,246.51174 C 339.86579,246.3008 340.35798,245.93166 340.68611,245.40431 C 341.01423,244.87698 341.17829,244.19143 341.17829,243.34768 L 341.17829,203.19924 C 341.17829,202.35554 340.99665,201.56452 340.63337,200.82619 C 340.27009,200.08795 339.79548,199.50788 339.20954,199.08596 C 338.78766,198.80476 338.01423,198.54694 336.88923,198.31252 C 335.76423,198.07819 334.86189,197.93757 334.1822,197.89065 L 334.1822,195.64065 L 347.22517,194.83204 L 347.71736,195.3594 L 347.71736,242.92579 C 347.71734,243.74612 347.86969,244.41995 348.17439,244.94728 C 348.47906,245.47463 348.97125,245.87893 349.65095,246.16018 C 350.16656,246.39454 350.67632,246.57034 351.18025,246.68752 C 351.68414,246.80471 352.2525,246.88674 352.88533,246.93361 L 352.88533,249.25393 z M 395.28376,248.62111 L 383.19001,249.39454 L 382.66267,248.90236 L 382.66267,245.66799 L 382.38142,245.59768 C 381.16264,246.95704 379.65679,248.07032 377.86384,248.93752 C 376.07085,249.80471 374.22515,250.23829 372.32673,250.23829 C 370.35797,250.23829 368.45367,249.79885 366.61384,248.91994 C 364.77399,248.04103 363.17438,246.80471 361.81501,245.21096 C 360.4322,243.59377 359.33649,241.64847 358.5279,239.37502 C 357.71931,237.1016 357.31501,234.59378 357.31501,231.85157 C 357.31501,229.34378 357.7486,226.96489 358.61579,224.71486 C 359.48298,222.46489 360.67829,220.49614 362.20173,218.80861 C 363.63141,217.23833 365.38336,215.98443 367.45759,215.0469 C 369.5318,214.10943 371.64703,213.64068 373.80329,213.64065 C 375.42046,213.64068 377.00835,213.84575 378.56697,214.25588 C 380.12553,214.66607 381.46733,215.18755 382.59236,215.82032 L 382.59236,203.76174 C 382.59233,202.77741 382.42827,201.88093 382.10017,201.07228 C 381.77202,200.26373 381.31499,199.64851 380.72908,199.22657 C 380.0728,198.78132 379.18804,198.45906 378.07478,198.25978 C 376.96148,198.06062 375.7603,197.91413 374.47126,197.82032 L 374.47126,195.64065 L 388.63923,194.83204 L 389.16658,195.3594 L 389.16658,242.11721 C 389.16654,242.93752 389.32474,243.63478 389.64119,244.20901 C 389.95756,244.78323 390.42045,245.26955 391.02986,245.66799 C 391.47513,245.94924 392.11966,246.12502 392.96345,246.19532 C 393.80716,246.26565 394.5806,246.31252 395.28376,246.33596 L 395.28376,248.62111 z M 382.59236,242.53907 L 382.59236,222.25393 C 382.40483,221.64458 382.10014,220.98833 381.67829,220.28518 C 381.25639,219.58208 380.72905,218.93755 380.09626,218.35157 C 379.41655,217.76568 378.61968,217.27935 377.70564,216.8926 C 376.79155,216.50591 375.72515,216.31255 374.50642,216.31252 C 373.10015,216.31255 371.80523,216.67583 370.62165,217.40236 C 369.43805,218.12896 368.38922,219.17193 367.47517,220.53127 C 366.60797,221.8438 365.92242,223.51372 365.41853,225.54103 C 364.91461,227.5684 364.66266,229.81253 364.66267,232.27346 C 364.66266,234.24222 364.85016,236.02933 365.22517,237.63478 C 365.60016,239.24026 366.23297,240.7344 367.12361,242.11721 C 367.94391,243.42971 368.99273,244.4844 370.27009,245.28127 C 371.54742,246.07815 373.06499,246.47659 374.82283,246.47657 C 376.6978,246.47659 378.25054,246.06643 379.48103,245.24611 C 380.71147,244.4258 381.74858,243.52346 382.59236,242.53907 L 382.59236,242.53907 z M 431.4947,248.62111 C 430.3931,249.01954 429.42631,249.34181 428.59431,249.58791 C 427.76225,249.834 426.81889,249.95704 425.76423,249.95704 C 423.93608,249.95704 422.4771,249.52931 421.38728,248.67385 C 420.29741,247.81838 419.60015,246.57034 419.29548,244.92971 L 419.08454,244.92971 C 417.56109,246.61721 415.92632,247.90627 414.18025,248.7969 C 412.43414,249.68752 410.33062,250.13282 407.8697,250.13282 C 405.26813,250.13282 403.12946,249.33596 401.45369,247.74221 C 399.7779,246.14846 398.94001,244.06252 398.94001,241.4844 C 398.94001,240.14847 399.12751,238.95316 399.50251,237.89846 C 399.87751,236.84377 400.44001,235.89457 401.19001,235.05079 C 401.77595,234.34769 402.54938,233.72074 403.51033,233.16994 C 404.47125,232.61918 405.3736,232.17973 406.21736,231.85157 C 407.27203,231.45316 409.4107,230.71488 412.63337,229.63674 C 415.85601,228.55864 418.02984,227.71489 419.15486,227.10549 L 419.15486,223.62502 C 419.15483,223.32036 419.09038,222.73442 418.9615,221.86721 C 418.83257,221.00005 418.55718,220.17973 418.13533,219.40627 C 417.66655,218.53911 417.00445,217.78325 416.149,217.13869 C 415.29351,216.49419 414.08062,216.17193 412.51033,216.1719 C 411.43219,216.17193 410.43023,216.35357 409.50447,216.71681 C 408.57867,217.08013 407.92828,217.46098 407.55329,217.8594 C 407.55328,218.32818 407.66461,219.01958 407.88728,219.93361 C 408.10992,220.84771 408.22125,221.69145 408.22126,222.46486 C 408.22125,223.2852 407.85211,224.0352 407.11384,224.71486 C 406.37555,225.39458 405.35016,225.73442 404.03767,225.7344 C 402.86579,225.73442 402.00446,225.3184 401.45369,224.48635 C 400.9029,223.65434 400.62751,222.7227 400.62751,221.69143 C 400.62751,220.61333 401.00837,219.58208 401.77009,218.59768 C 402.5318,217.61333 403.52204,216.73443 404.74079,215.96096 C 405.79547,215.30473 407.07281,214.7481 408.57283,214.29103 C 410.07281,213.83404 411.53765,213.60553 412.96736,213.60549 C 414.93609,213.60553 416.65288,213.74029 418.11775,214.00978 C 419.58257,214.27935 420.91264,214.85943 422.10798,215.75002 C 423.30327,216.61723 424.21147,217.79497 424.83259,219.28322 C 425.45366,220.77152 425.7642,222.68755 425.76423,225.03127 C 425.7642,228.38285 425.72905,231.35354 425.65876,233.94338 C 425.58842,236.53324 425.55327,239.3633 425.55329,242.43361 C 425.55327,243.34768 425.71147,244.07424 426.0279,244.61329 C 426.34428,245.15237 426.83061,245.6094 427.48689,245.9844 C 427.83842,246.19534 428.39506,246.31252 429.15681,246.33596 C 429.9185,246.3594 430.69779,246.37112 431.4947,246.37111 L 431.4947,248.62111 z M 419.22517,230.05861 C 417.23296,230.64457 415.48687,231.21878 413.98689,231.78127 C 412.48687,232.34378 411.09234,233.04691 409.80329,233.89065 C 408.63141,234.68753 407.70563,235.63089 407.02595,236.72072 C 406.34625,237.81058 406.00641,239.1055 406.00642,240.60549 C 406.00641,242.5508 406.51617,243.98049 407.53572,244.89454 C 408.55524,245.80862 409.85016,246.26565 411.42048,246.26565 C 413.08453,246.26565 414.54937,245.86135 415.81501,245.05276 C 417.08062,244.24417 418.14702,243.28909 419.01423,242.18752 L 419.22517,230.05861 z M 472.90876,248.62111 L 460.81501,249.39454 L 460.28767,248.90236 L 460.28767,245.66799 L 460.00642,245.59768 C 458.78764,246.95704 457.28179,248.07032 455.48884,248.93752 C 453.69585,249.80471 451.85015,250.23829 449.95173,250.23829 C 447.98297,250.23829 446.07867,249.79885 444.23884,248.91994 C 442.39899,248.04103 440.79938,246.80471 439.44001,245.21096 C 438.0572,243.59377 436.96149,241.64847 436.1529,239.37502 C 435.34431,237.1016 434.94001,234.59378 434.94001,231.85157 C 434.94001,229.34378 435.3736,226.96489 436.24079,224.71486 C 437.10798,222.46489 438.30329,220.49614 439.82673,218.80861 C 441.25641,217.23833 443.00836,215.98443 445.08259,215.0469 C 447.1568,214.10943 449.27203,213.64068 451.42829,213.64065 C 453.04546,213.64068 454.63335,213.84575 456.19197,214.25588 C 457.75053,214.66607 459.09233,215.18755 460.21736,215.82032 L 460.21736,203.76174 C 460.21733,202.77741 460.05327,201.88093 459.72517,201.07228 C 459.39702,200.26373 458.93999,199.64851 458.35408,199.22657 C 457.6978,198.78132 456.81304,198.45906 455.69978,198.25978 C 454.58648,198.06062 453.3853,197.91413 452.09626,197.82032 L 452.09626,195.64065 L 466.26423,194.83204 L 466.79158,195.3594 L 466.79158,242.11721 C 466.79154,242.93752 466.94974,243.63478 467.26619,244.20901 C 467.58256,244.78323 468.04545,245.26955 468.65486,245.66799 C 469.10013,245.94924 469.74466,246.12502 470.58845,246.19532 C 471.43216,246.26565 472.2056,246.31252 472.90876,246.33596 L 472.90876,248.62111 z M 460.21736,242.53907 L 460.21736,222.25393 C 460.02983,221.64458 459.72514,220.98833 459.30329,220.28518 C 458.88139,219.58208 458.35405,218.93755 457.72126,218.35157 C 457.04155,217.76568 456.24468,217.27935 455.33064,216.8926 C 454.41655,216.50591 453.35015,216.31255 452.13142,216.31252 C 450.72515,216.31255 449.43023,216.67583 448.24665,217.40236 C 447.06305,218.12896 446.01422,219.17193 445.10017,220.53127 C 444.23297,221.8438 443.54742,223.51372 443.04353,225.54103 C 442.53961,227.5684 442.28766,229.81253 442.28767,232.27346 C 442.28766,234.24222 442.47516,236.02933 442.85017,237.63478 C 443.22516,239.24026 443.85797,240.7344 444.74861,242.11721 C 445.56891,243.42971 446.61773,244.4844 447.89509,245.28127 C 449.17242,246.07815 450.68999,246.47659 452.44783,246.47657 C 454.3228,246.47659 455.87554,246.06643 457.10603,245.24611 C 458.33647,244.4258 459.37358,243.52346 460.21736,242.53907 L 460.21736,242.53907 z M 119.09626,320.62111 L 107.00251,321.39454 L 106.47517,320.90236 L 106.47517,317.66798 L 106.19392,317.59767 C 104.97514,318.95704 103.46928,320.07032 101.67634,320.93751 C 99.883345,321.8047 98.037644,322.23829 96.139226,322.23829 C 94.17046,322.23829 92.266165,321.79884 90.426335,320.91993 C 88.586482,320.04103 86.986874,318.8047 85.627507,317.21095 C 84.244689,315.59377 83.148987,313.64846 82.340398,311.37501 C 81.531801,309.10159 81.127505,306.59378 81.127507,303.85157 C 81.127505,301.34378 81.561098,298.96488 82.428288,296.71486 C 83.295471,294.46488 84.490783,292.49613 86.014226,290.80861 C 87.443905,289.23832 89.195856,287.98442 91.270085,287.04689 C 93.344289,286.10942 95.459522,285.64067 97.615788,285.64064 C 99.232955,285.64067 100.82085,285.84575 102.37946,286.25588 C 103.93803,286.66607 105.27983,287.18755 106.40485,287.82032 L 106.40485,275.76173 C 106.40483,274.7774 106.24076,273.88092 105.91267,273.07228 C 105.58451,272.26373 105.12748,271.64851 104.54157,271.22657 C 103.8853,270.78132 103.00053,270.45905 101.88728,270.25978 C 100.77397,270.06061 99.572799,269.91413 98.283757,269.82032 L 98.283757,267.64065 L 112.45173,266.83204 L 112.97907,267.3594 L 112.97907,314.1172 C 112.97904,314.93752 113.13724,315.63478 113.45368,316.209 C 113.77005,316.78322 114.23294,317.26955 114.84235,317.66798 C 115.28763,317.94923 115.93216,318.12501 116.77595,318.19532 C 117.61966,318.26564 118.39309,318.31251 119.09626,318.33595 L 119.09626,320.62111 z M 106.40485,314.53907 L 106.40485,294.25392 C 106.21733,293.64457 105.91264,292.98832 105.49079,292.28517 C 105.06889,291.58207 104.54155,290.93755 103.90876,290.35157 C 103.22905,289.76567 102.43217,289.27934 101.51813,288.89259 C 100.60405,288.5059 99.537643,288.31255 98.318913,288.31251 C 96.912645,288.31255 95.617725,288.67582 94.434148,289.40236 C 93.250539,290.12895 92.201712,291.17192 91.287663,292.53126 C 90.420464,293.8438 89.734918,295.51371 89.231023,297.54103 C 88.727106,299.56839 88.475154,301.81253 88.475163,304.27345 C 88.475154,306.24221 88.662653,308.02932 89.037663,309.63478 C 89.412653,311.24026 90.045464,312.73439 90.936101,314.1172 C 91.7564,315.4297 92.805227,316.48439 94.082585,317.28126 C 95.359912,318.07814 96.877489,318.47659 98.63532,318.47657 C 100.5103,318.47659 102.06303,318.06642 103.29353,317.24611 C 104.52397,316.4258 105.56108,315.52345 106.40485,314.53907 L 106.40485,314.53907 z M 153.26814,313.09767 C 151.81498,315.8633 149.86967,318.06642 147.4322,319.70704 C 144.99468,321.34767 142.1939,322.16798 139.02986,322.16798 C 136.24078,322.16798 133.79742,321.67579 131.69978,320.69142 C 129.60211,319.70704 127.8736,318.37111 126.51423,316.68361 C 125.15485,314.99611 124.14118,313.02736 123.47321,310.77736 C 122.80524,308.52737 122.47126,306.14846 122.47126,303.64064 C 122.47126,301.39066 122.82868,299.18167 123.54353,297.01368 C 124.25836,294.84574 125.3072,292.89457 126.69001,291.16017 C 128.02594,289.49614 129.68414,288.15434 131.66462,287.13478 C 133.64508,286.11528 135.86578,285.60553 138.32673,285.60548 C 140.85796,285.60553 143.02593,286.00395 144.83064,286.80079 C 146.6353,287.5977 148.10014,288.68755 149.22517,290.07032 C 150.30326,291.38285 151.106,292.92973 151.63337,294.71095 C 152.16068,296.49222 152.42436,298.42582 152.42439,300.51173 L 152.42439,302.83204 L 129.46736,302.83204 C 129.46735,305.1055 129.68414,307.16799 130.11775,309.01954 C 130.55133,310.87111 131.23688,312.50002 132.17439,313.90626 C 133.08844,315.26564 134.28375,316.33791 135.76033,317.12306 C 137.23687,317.90822 138.99468,318.3008 141.03376,318.30079 C 143.11968,318.3008 144.9185,317.81447 146.43025,316.84181 C 147.94194,315.86916 149.40092,314.11721 150.8072,311.58595 L 153.26814,313.09767 z M 145.49861,299.87892 C 145.49858,298.56644 145.38725,297.16019 145.16462,295.66017 C 144.94194,294.16019 144.58452,292.9063 144.09236,291.89845 C 143.55327,290.82035 142.81499,289.94145 141.87751,289.26173 C 140.93999,288.58207 139.73296,288.24223 138.25642,288.2422 C 135.79547,288.24223 133.75055,289.26762 132.12165,291.31838 C 130.49274,293.36918 129.60797,296.22269 129.46736,299.87892 L 145.49861,299.87892 z M 173.58845,321.25392 L 156.67829,321.25392 L 156.67829,318.93361 C 157.21735,318.88673 157.79157,318.834 158.40095,318.7754 C 159.01032,318.71681 159.51423,318.62892 159.91267,318.51173 C 160.56891,318.3008 161.0611,317.93165 161.38923,317.40431 C 161.71735,316.87697 161.88141,316.19142 161.88142,315.34767 L 161.88142,275.19923 C 161.88141,274.35553 161.69977,273.56451 161.3365,272.82619 C 160.97321,272.08795 160.4986,271.50788 159.91267,271.08596 C 159.49079,270.80476 158.71735,270.54694 157.59236,270.31252 C 156.46736,270.07819 155.56501,269.93757 154.88533,269.89065 L 154.88533,267.64065 L 167.92829,266.83204 L 168.42048,267.3594 L 168.42048,314.92579 C 168.42047,315.74611 168.57281,316.41994 168.87751,316.94728 C 169.18219,317.47463 169.67437,317.87892 170.35408,318.16017 C 170.86968,318.39454 171.37945,318.57034 171.88337,318.68751 C 172.38726,318.8047 172.95562,318.88673 173.58845,318.93361 L 173.58845,321.25392 z M 216.86579,319.7422 C 215.34233,320.37501 213.90093,320.90821 212.54158,321.34181 C 211.18218,321.7754 209.51812,321.9922 207.54939,321.9922 C 204.64313,321.9922 202.59821,321.25978 201.41462,319.79493 C 200.23102,318.33009 199.63923,316.26173 199.63923,313.58986 L 199.63923,290.10548 L 193.38142,290.10548 L 193.38142,286.73048 L 199.77986,286.73048 L 199.77986,275.93752 L 206.17829,275.93752 L 206.17829,286.73048 L 216.12751,286.73048 L 216.12751,290.10548 L 206.24861,290.10548 L 206.24861,309.47657 C 206.24859,310.92971 206.30133,312.14261 206.40681,313.11525 C 206.51227,314.08791 206.76422,314.93752 207.16267,315.66407 C 207.53765,316.34377 208.10015,316.85939 208.85017,317.21095 C 209.60015,317.56251 210.60796,317.7383 211.87361,317.73829 C 212.45952,317.7383 213.32085,317.68556 214.45759,317.58009 C 215.59429,317.47463 216.39702,317.33986 216.86579,317.17579 L 216.86579,319.7422 z M 246.88923,291.0547 C 246.8892,292.25005 246.59623,293.31059 246.01033,294.23634 C 245.42436,295.16215 244.52202,295.62505 243.30329,295.62501 C 241.99077,295.62505 240.98882,295.28519 240.29744,294.60548 C 239.60601,293.92582 239.2603,293.17582 239.26033,292.35548 C 239.2603,291.83988 239.30132,291.37113 239.38337,290.94923 C 239.46538,290.52739 239.54155,290.10551 239.61189,289.68361 C 238.51031,289.68364 237.22124,290.12895 235.7447,291.01954 C 234.26812,291.9102 233.01422,293.17582 231.98298,294.81642 L 231.98298,314.99611 C 231.98297,315.81642 232.14117,316.48439 232.45759,317.00001 C 232.77398,317.51564 233.27203,317.90236 233.95173,318.16017 C 234.53765,318.39454 235.29351,318.57034 236.21931,318.68751 C 237.14507,318.8047 237.94781,318.88673 238.62751,318.93361 L 238.62751,321.25392 L 220.34626,321.25392 L 220.34626,318.93361 C 220.88532,318.88673 221.44196,318.83986 222.01619,318.79298 C 222.5904,318.74611 223.08845,318.65236 223.51033,318.51173 C 224.16657,318.3008 224.6529,317.93165 224.96931,317.40431 C 225.28571,316.87697 225.44391,316.19142 225.44392,315.34767 L 225.44392,293.93751 C 225.44391,293.21098 225.27399,292.49613 224.93415,291.79298 C 224.5943,291.08988 224.11969,290.52739 223.51033,290.10548 C 223.06501,289.82426 222.53766,289.61918 221.92829,289.49025 C 221.31892,289.36137 220.66267,289.27348 219.95954,289.22657 L 219.95954,286.94142 L 231.49079,286.16798 L 231.98298,286.66017 L 231.98298,291.54689 L 232.15876,291.54689 C 233.61187,289.64848 235.22906,288.20708 237.01033,287.22267 C 238.79155,286.23833 240.42046,285.74614 241.89704,285.74611 C 243.37358,285.74614 244.57475,286.22661 245.50056,287.18751 C 246.42631,288.14848 246.8892,289.43755 246.88923,291.0547 L 246.88923,291.0547 z M 266.71736,321.25392 L 249.94783,321.25392 L 249.94783,318.93361 C 250.48689,318.88673 251.04353,318.83986 251.61775,318.79298 C 252.19196,318.74611 252.69001,318.65236 253.11189,318.51173 C 253.76813,318.3008 254.25446,317.93165 254.57087,317.40431 C 254.88727,316.87697 255.04547,316.19142 255.04548,315.34767 L 255.04548,293.93751 C 255.04547,293.18755 254.87555,292.50199 254.53572,291.88088 C 254.19587,291.25982 253.72126,290.73832 253.11189,290.31642 C 252.66657,290.0352 252.02204,289.79496 251.17829,289.59571 C 250.33454,289.39653 249.5611,289.27348 248.85798,289.22657 L 248.85798,286.94142 L 261.09236,286.16798 L 261.58454,286.66017 L 261.58454,314.92579 C 261.58453,315.74611 261.74273,316.4258 262.05915,316.96486 C 262.37555,317.50392 262.87359,317.90236 263.55329,318.16017 C 264.0689,318.37111 264.57281,318.54103 265.06501,318.66993 C 265.55718,318.79884 266.10796,318.88673 266.71736,318.93361 L 266.71736,321.25392 z M 262.28767,272.49221 C 262.28765,273.82819 261.8482,274.9942 260.96931,275.99025 C 260.09039,276.98638 259.00641,277.48443 257.71736,277.48439 C 256.52204,277.48443 255.48493,277.00982 254.60603,276.06056 C 253.72712,275.1114 253.28766,274.0274 253.28767,272.80861 C 253.28766,271.51959 253.72712,270.39459 254.60603,269.43361 C 255.48493,268.47272 256.52204,267.99226 257.71736,267.99221 C 259.05328,267.99226 260.14898,268.44342 261.00447,269.34571 C 261.85992,270.24811 262.28765,271.29694 262.28767,272.49221 L 262.28767,272.49221 z M 303.8072,320.62111 C 302.7056,321.01954 301.73881,321.34181 300.90681,321.5879 C 300.07475,321.83399 299.13139,321.95704 298.07673,321.95704 C 296.24858,321.95704 294.7896,321.52931 293.69978,320.67384 C 292.60991,319.81838 291.91265,318.57034 291.60798,316.9297 L 291.39704,316.9297 C 289.87359,318.6172 288.23882,319.90626 286.49275,320.79689 C 284.74664,321.68751 282.64312,322.13282 280.1822,322.13282 C 277.58063,322.13282 275.44196,321.33595 273.76619,319.7422 C 272.0904,318.14845 271.25251,316.06252 271.25251,313.48439 C 271.25251,312.14846 271.44001,310.95315 271.81501,309.89845 C 272.19001,308.84377 272.75251,307.89457 273.50251,307.05079 C 274.08845,306.34768 274.86188,305.72073 275.82283,305.16993 C 276.78375,304.61917 277.6861,304.17972 278.52986,303.85157 C 279.58453,303.45315 281.7232,302.71487 284.94587,301.63673 C 288.16851,300.55863 290.34234,299.71488 291.46736,299.10548 L 291.46736,295.62501 C 291.46733,295.32035 291.40288,294.73441 291.274,293.8672 C 291.14507,293.00005 290.86968,292.17973 290.44783,291.40626 C 289.97905,290.5391 289.31695,289.78325 288.4615,289.13868 C 287.60601,288.49418 286.39312,288.17192 284.82283,288.17189 C 283.74469,288.17192 282.74273,288.35357 281.81697,288.71681 C 280.89117,289.08012 280.24078,289.46098 279.86579,289.85939 C 279.86578,290.32817 279.97711,291.01957 280.19978,291.93361 C 280.42242,292.8477 280.53375,293.69144 280.53376,294.46486 C 280.53375,295.28519 280.16461,296.03519 279.42634,296.71486 C 278.68805,297.39457 277.66266,297.73441 276.35017,297.73439 C 275.17829,297.73441 274.31696,297.31839 273.76619,296.48634 C 273.2154,295.65434 272.94001,294.72269 272.94001,293.69142 C 272.94001,292.61332 273.32087,291.58207 274.08259,290.59767 C 274.8443,289.61332 275.83454,288.73442 277.05329,287.96095 C 278.10797,287.30473 279.38531,286.74809 280.88533,286.29103 C 282.38531,285.83403 283.85015,285.60553 285.27986,285.60548 C 287.24859,285.60553 288.96538,285.74028 290.43025,286.00978 C 291.89507,286.27934 293.22514,286.85942 294.42048,287.75001 C 295.61577,288.61723 296.52397,289.79496 297.14509,291.28321 C 297.76616,292.77152 298.0767,294.68755 298.07673,297.03126 C 298.0767,300.38284 298.04155,303.35354 297.97126,305.94338 C 297.90092,308.53323 297.86577,311.3633 297.86579,314.43361 C 297.86577,315.34767 298.02397,316.07423 298.3404,316.61329 C 298.65678,317.15236 299.14311,317.60939 299.79939,317.98439 C 300.15092,318.19534 300.70756,318.31251 301.46931,318.33595 C 302.231,318.35939 303.01029,318.37111 303.8072,318.37111 L 303.8072,320.62111 z M 291.53767,302.05861 C 289.54546,302.64457 287.79937,303.21878 286.29939,303.78126 C 284.79937,304.34378 283.40484,305.0469 282.11579,305.89064 C 280.94391,306.68753 280.01813,307.63088 279.33845,308.72071 C 278.65875,309.81057 278.31891,311.10549 278.31892,312.60548 C 278.31891,314.5508 278.82867,315.98048 279.84822,316.89454 C 280.86774,317.80861 282.16266,318.26564 283.73298,318.26564 C 285.39703,318.26564 286.86187,317.86134 288.12751,317.05275 C 289.39312,316.24416 290.45952,315.28909 291.32673,314.18751 L 291.53767,302.05861 z M 294.45564,269.92579 C 294.45561,270.81647 294.25053,271.54303 293.8404,272.10548 C 293.43022,272.66803 292.82671,273.26569 292.02986,273.89846 C 290.85796,274.83599 289.32866,276.03132 287.44197,277.48439 C 285.55523,278.93755 283.52203,280.51958 281.34236,282.23048 L 280.00642,281.10548 C 282.11578,277.98834 283.58648,275.79107 284.41853,274.51369 C 285.25054,273.2364 286.14703,271.82428 287.10798,270.27736 C 287.83453,269.08209 288.53765,268.26765 289.21736,267.834 C 289.89702,267.40046 290.68218,267.18367 291.57283,267.18361 C 292.41655,267.18367 293.10796,267.47078 293.64704,268.04494 C 294.18608,268.6192 294.45561,269.24617 294.45564,269.92579 L 294.45564,269.92579 z M 345.53767,321.25392 L 328.5572,321.25392 L 328.5572,318.93361 C 329.09624,318.88673 329.68804,318.83986 330.33259,318.79298 C 330.9771,318.74611 331.5103,318.65236 331.9322,318.51173 C 332.58842,318.3008 333.07475,317.93165 333.39119,317.40431 C 333.70756,316.87697 333.86577,316.19142 333.86579,315.34767 L 333.86579,297.52345 C 333.86577,295.06255 333.28569,293.1641 332.12556,291.82814 C 330.96538,290.49223 329.55327,289.82426 327.88923,289.82423 C 326.64702,289.82426 325.5103,290.01762 324.47908,290.40431 C 323.44781,290.79107 322.53375,291.26567 321.73689,291.82814 C 320.96343,292.36723 320.3482,292.9473 319.89119,293.56838 C 319.43414,294.18949 319.10016,294.68755 318.88923,295.06251 L 318.88923,314.99611 C 318.88922,315.79299 319.05328,316.44923 319.38142,316.96486 C 319.70953,317.48048 320.20172,317.87892 320.85798,318.16017 C 321.35015,318.39454 321.88336,318.57034 322.45759,318.68751 C 323.03179,318.8047 323.62359,318.88673 324.23298,318.93361 L 324.23298,321.25392 L 307.25251,321.25392 L 307.25251,318.93361 C 307.79157,318.88673 308.34821,318.83986 308.92244,318.79298 C 309.49665,318.74611 309.9947,318.65236 310.41658,318.51173 C 311.07282,318.3008 311.55915,317.93165 311.87556,317.40431 C 312.19196,316.87697 312.35016,316.19142 312.35017,315.34767 L 312.35017,293.93751 C 312.35016,293.14066 312.18024,292.40824 311.8404,291.74025 C 311.50055,291.07232 311.02594,290.52739 310.41658,290.10548 C 309.97126,289.82426 309.44391,289.61918 308.83454,289.49025 C 308.22517,289.36137 307.56892,289.27348 306.86579,289.22657 L 306.86579,286.94142 L 318.39704,286.16798 L 318.88923,286.66017 L 318.88923,291.54689 L 319.06501,291.54689 C 319.6275,290.98442 320.33062,290.31059 321.17439,289.5254 C 322.01812,288.74028 322.815,288.10161 323.56501,287.60939 C 324.43218,287.04692 325.46343,286.57817 326.65876,286.20314 C 327.85405,285.82817 329.20171,285.64067 330.70173,285.64064 C 334.02983,285.64067 336.49662,286.67778 338.10212,288.75196 C 339.70756,290.82621 340.51029,293.58598 340.51033,297.03126 L 340.51033,315.06642 C 340.51029,315.88673 340.65091,316.54884 340.9322,317.05275 C 341.21341,317.55666 341.69388,317.94923 342.37361,318.23048 C 342.93607,318.46486 343.4224,318.62892 343.83259,318.72267 C 344.24271,318.81642 344.81107,318.88673 345.53767,318.93361 L 345.53767,321.25392 z M 379.56892,317.66798 C 380.50639,318.55861 381.24467,319.56642 381.78376,320.69142 C 382.32279,321.81642 382.59232,323.21095 382.59236,324.87501 C 382.59232,326.53907 382.22904,328.10352 381.50251,329.56838 C 380.77592,331.0332 379.67436,332.30469 378.19783,333.38282 C 376.62748,334.48438 374.75249,335.33984 372.57283,335.94923 C 370.39312,336.55859 367.69781,336.86328 364.48689,336.86329 C 359.23688,336.86328 355.3111,336.0957 352.70954,334.56056 C 350.10798,333.0254 348.8072,330.78125 348.8072,327.82814 C 348.8072,325.43751 349.7447,323.55079 351.6197,322.16798 C 353.49469,320.78517 355.88532,320.03517 358.79158,319.91798 L 358.79158,319.42579 C 358.08844,319.21486 357.36188,318.95118 356.61189,318.63478 C 355.86188,318.31838 355.21735,317.94923 354.67829,317.52736 C 354.06891,317.03517 353.57673,316.45509 353.20173,315.78713 C 352.82673,315.11916 352.63923,314.29299 352.63923,313.30861 C 352.63923,312.06643 353.07868,310.92386 353.95759,309.88088 C 354.83649,308.83791 356.16657,307.94143 357.94783,307.19142 L 357.94783,306.66407 C 355.69782,305.6094 353.95173,304.25589 352.70954,302.60353 C 351.46735,300.9512 350.84626,299.03519 350.84626,296.85548 C 350.84626,293.57426 352.07087,290.87895 354.52009,288.76954 C 356.9693,286.6602 360.10406,285.60553 363.92439,285.60548 C 364.97906,285.60553 366.02789,285.71098 367.07087,285.92189 C 368.11382,286.13286 369.17437,286.40239 370.25251,286.73048 L 382.34626,286.73048 L 382.34626,290.10548 L 374.19001,290.10548 L 374.19001,290.31642 C 375.05717,291.32426 375.7017,292.43755 376.12361,293.65626 C 376.54545,294.87505 376.75639,296.07035 376.75642,297.2422 C 376.75639,300.28909 375.52006,302.86722 373.04744,304.97657 C 370.57476,307.08596 367.69781,308.14065 364.41658,308.14064 L 360.16267,308.14064 C 359.62359,308.32815 359.0611,308.66799 358.47517,309.16017 C 357.88922,309.65237 357.59625,310.32034 357.59626,311.16407 C 357.59625,312.03127 357.84235,312.69338 358.33454,313.1504 C 358.82672,313.60744 359.42438,313.91799 360.12751,314.08204 C 360.80719,314.26955 361.5982,314.38674 362.50056,314.43361 C 363.40289,314.48049 364.33453,314.51564 365.29548,314.53907 C 366.32671,314.56252 367.73882,314.63284 369.53181,314.75001 C 371.32475,314.8672 372.59624,314.93752 373.34626,314.96095 C 374.42436,315.00784 375.50834,315.26564 376.59822,315.73439 C 377.68803,316.20314 378.67826,316.84767 379.56892,317.66798 L 379.56892,317.66798 z M 370.07673,297.10157 C 370.07671,294.35941 369.52007,292.17387 368.40681,290.54493 C 367.29351,288.91607 365.72906,288.10161 363.71345,288.10157 C 362.61187,288.10161 361.66851,288.33012 360.88337,288.78713 C 360.0982,289.24418 359.45953,289.89457 358.96736,290.73829 C 358.4986,291.51176 358.16461,292.4434 357.9654,293.53321 C 357.76617,294.62309 357.66657,295.74222 357.66658,296.89064 C 357.66657,299.49222 358.23492,301.61332 359.37165,303.25392 C 360.50836,304.89457 361.97906,305.71487 363.78376,305.71486 C 365.79937,305.71487 367.3521,304.90042 368.44197,303.2715 C 369.53179,301.64261 370.07671,299.58597 370.07673,297.10157 L 370.07673,297.10157 z M 376.82673,326.17579 C 376.8267,324.86329 376.52202,323.78516 375.91267,322.94142 C 375.30327,322.09767 374.37749,321.52345 373.13533,321.21876 C 372.47905,321.12501 371.1314,321.01954 369.09236,320.90236 C 367.05327,320.78517 364.68609,320.72657 361.99079,320.72657 C 359.45953,321.21876 357.66071,322.04493 356.59431,323.20509 C 355.5279,324.36524 354.99469,325.85938 354.9947,327.68751 C 354.99469,328.50782 355.17047,329.29297 355.52204,330.04298 C 355.8736,330.79297 356.48297,331.48438 357.35017,332.1172 C 358.17047,332.72656 359.27203,333.22461 360.65486,333.61134 C 362.03765,333.99804 363.72515,334.1914 365.71736,334.19142 C 369.16265,334.1914 371.87554,333.5293 373.85603,332.20509 C 375.83647,330.88086 376.8267,328.87111 376.82673,326.17579 L 376.82673,326.17579 z M 423.72517,320.62111 L 412.44001,321.39454 L 411.91267,320.90236 L 411.91267,316.50782 L 411.70173,316.50782 C 411.1392,317.09376 410.50639,317.72072 409.80329,318.38868 C 409.10014,319.05665 408.29155,319.66017 407.37751,320.19923 C 406.3228,320.83204 405.30327,321.31251 404.31892,321.64064 C 403.33453,321.96876 401.94,322.13282 400.13533,322.13282 C 397.065,322.13282 394.72711,321.13088 393.12165,319.12696 C 391.51618,317.12306 390.71344,314.21096 390.71345,310.39064 L 390.71345,293.79689 C 390.71344,292.95316 390.55524,292.24418 390.23884,291.66993 C 389.92243,291.09574 389.45954,290.5977 388.85017,290.17579 C 388.42829,289.89457 387.90095,289.6895 387.26814,289.56056 C 386.63532,289.43168 385.96736,289.3438 385.26423,289.29689 L 385.26423,287.01173 L 396.83064,286.16798 L 397.35798,286.66017 L 397.35798,310.7422 C 397.35797,313.25002 397.92047,315.13674 399.04548,316.40236 C 400.17047,317.66798 401.51812,318.3008 403.08845,318.30079 C 404.37749,318.3008 405.52593,318.10159 406.53376,317.70314 C 407.54155,317.3047 408.3853,316.83595 409.06501,316.29689 C 409.6978,315.8047 410.25444,315.28322 410.73494,314.73243 C 411.21538,314.18166 411.58452,313.67189 411.84236,313.20314 L 411.84236,293.55079 C 411.84233,292.77738 411.67827,292.09184 411.35017,291.49415 C 411.02202,290.89653 410.56499,290.38676 409.97908,289.96486 C 409.55718,289.68364 408.93022,289.51371 408.09822,289.45509 C 407.26616,289.39653 406.33452,289.3438 405.30329,289.29689 L 405.30329,287.01173 L 417.88923,286.16798 L 418.41658,286.66017 L 418.41658,314.18751 C 418.41654,314.98439 418.5806,315.66409 418.90876,316.22657 C 419.23685,316.78909 419.69388,317.26955 420.27986,317.66798 C 420.7017,317.9258 421.2056,318.09572 421.79158,318.17775 C 422.37747,318.25978 423.02201,318.31251 423.72517,318.33595 L 423.72517,320.62111 z M 444.29158,321.25392 L 427.38142,321.25392 L 427.38142,318.93361 C 427.92048,318.88673 428.4947,318.834 429.10408,318.7754 C 429.71345,318.71681 430.21735,318.62892 430.61579,318.51173 C 431.27204,318.3008 431.76423,317.93165 432.09236,317.40431 C 432.42048,316.87697 432.58454,316.19142 432.58454,315.34767 L 432.58454,275.19923 C 432.58454,274.35553 432.4029,273.56451 432.03962,272.82619 C 431.67634,272.08795 431.20173,271.50788 430.61579,271.08596 C 430.19391,270.80476 429.42048,270.54694 428.29548,270.31252 C 427.17048,270.07819 426.26814,269.93757 425.58845,269.89065 L 425.58845,267.64065 L 438.63142,266.83204 L 439.12361,267.3594 L 439.12361,314.92579 C 439.12359,315.74611 439.27594,316.41994 439.58064,316.94728 C 439.88531,317.47463 440.3775,317.87892 441.0572,318.16017 C 441.57281,318.39454 442.08257,318.57034 442.5865,318.68751 C 443.09039,318.8047 443.65875,318.88673 444.29158,318.93361 L 444.29158,321.25392 z M 482.50642,303.57032 C 482.50638,306.00784 482.11966,308.40432 481.34626,310.75978 C 480.57279,313.11525 479.47123,315.1133 478.04158,316.75392 C 476.42436,318.62892 474.54936,320.02345 472.41658,320.93751 C 470.28374,321.85157 467.89312,322.30861 465.2447,322.30861 C 463.04156,322.30861 460.9439,321.89259 458.95173,321.06056 C 456.95953,320.22853 455.19,319.01564 453.64314,317.42189 C 452.11969,315.85159 450.90681,313.93556 450.00447,311.67384 C 449.10212,309.41213 448.65095,306.87503 448.65095,304.06251 C 448.65095,298.64847 450.22712,294.2188 453.37947,290.77345 C 456.5318,287.32817 460.66265,285.60553 465.77204,285.60548 C 470.62358,285.60553 474.62553,287.24028 477.7779,290.50978 C 480.93021,293.77934 482.50638,298.13285 482.50642,303.57032 L 482.50642,303.57032 z M 475.22908,303.64064 C 475.22905,301.88284 475.05327,300.02542 474.70173,298.06838 C 474.35014,296.11136 473.8228,294.45316 473.1197,293.09376 C 472.36967,291.64067 471.3853,290.47465 470.16658,289.59571 C 468.9478,288.71684 467.45952,288.27739 465.70173,288.27736 C 463.89703,288.27739 462.35601,288.7227 461.07869,289.61329 C 459.80133,290.50395 458.76422,291.7227 457.96736,293.26954 C 457.21735,294.69926 456.69,296.32816 456.38533,298.15626 C 456.08063,299.98441 455.92828,301.75394 455.92829,303.46486 C 455.92828,305.71487 456.10993,307.79495 456.47322,309.70509 C 456.83649,311.61525 457.41656,313.32034 458.21345,314.82032 C 459.01031,316.32034 460.01226,317.49806 461.21931,318.35353 C 462.42633,319.209 463.92046,319.63673 465.70173,319.63673 C 468.6314,319.63673 470.95171,318.21876 472.66267,315.38282 C 474.37358,312.54689 475.22905,308.63284 475.22908,303.64064 L 475.22908,303.64064 z"
       id="text3183" />
    <g
       id="g3314"
       transform="translate(-20.739837,0)">
      <path
         id="path3189"
         d="M 123.70293,593.53963 L 225.90514,355.06779 L 481.41067,542.43853 L 123.70293,593.53963 z"
         style="fill:#afc6e9;fill-opacity:1;fill-rule:evenodd;stroke:#000000;stroke-width:3.40674043;stroke-linecap:butt;stroke-linejoin:miter;marker:none;marker-start:none;marker-mid:none;marker-end:none;stroke-miterlimit:4;stroke-dasharray:none;stroke-dashoffset:0;stroke-opacity:1;visibility:visible;display:inline;overflow:visible;enable-background:accumulate" />
      <path
         id="text3191"
         d="M 165.34425,457.40688 L 165.15795,457.40688 C 164.76757,457.72627 164.30181,458.12993 163.76065,458.61787 C 163.21946,459.10582 162.58513,459.5716 161.85767,460.01517 C 161.16566,460.45876 160.41156,460.84468 159.59538,461.17293 C 158.77917,461.50118 157.892,461.66531 156.93386,461.66531 C 154.36106,461.66531 152.34274,460.74265 150.87891,458.89733 C 149.41508,457.05202 148.68316,454.53245 148.68316,451.33863 C 148.68316,449.13845 149.09126,447.00037 149.90746,444.92437 C 150.72366,442.84841 151.85036,440.98535 153.28759,439.33519 C 154.65382,437.75606 156.27735,436.48296 158.15816,435.51592 C 160.03895,434.54892 161.97298,434.06543 163.96027,434.06539 C 165.22003,434.06543 166.42215,434.23398 167.56662,434.57108 C 168.71105,434.90823 169.61153,435.28972 170.26806,435.71553 L 175.13863,434.46462 L 175.45801,434.86384 L 171.41251,452.03062 C 171.27054,452.58068 171.12415,453.2505 170.97336,454.04008 C 170.82252,454.82966 170.74711,455.41075 170.74713,455.78337 C 170.74711,456.79474 170.96003,457.47786 171.38589,457.83273 C 171.81171,458.1876 172.53032,458.36503 173.54172,458.36503 C 173.87882,458.36503 174.35789,458.3118 174.97894,458.20534 C 175.59993,458.09888 176.07901,457.98355 176.41616,457.85934 L 176.01693,459.56271 C 174.42,460.20148 173.23119,460.66281 172.4505,460.9467 C 171.66976,461.2306 170.72049,461.37255 169.60268,461.37255 C 168.32513,461.37255 167.31375,460.99993 166.56855,460.25471 C 165.82331,459.50948 165.41521,458.56021 165.34425,457.40688 L 165.34425,457.40688 z M 169.15022,440.5861 C 169.1502,440.00059 169.0881,439.44167 168.96392,438.90936 C 168.83969,438.37707 168.58241,437.88025 168.19208,437.4189 C 167.83719,436.97535 167.34924,436.62047 166.72824,436.35429 C 166.1072,436.08817 165.32649,435.95509 164.38611,435.95507 C 163.09082,435.95509 161.83104,436.38093 160.60675,437.2326 C 159.38245,438.0843 158.28235,439.22875 157.30648,440.66595 C 156.38381,442.01448 155.62971,443.64686 155.04419,445.56314 C 154.45865,447.47944 154.16588,449.42235 154.16589,451.39186 C 154.16588,452.47422 154.22798,453.43237 154.35219,454.2663 C 154.47639,455.10024 154.71593,455.86321 155.0708,456.55521 C 155.40792,457.22945 155.89586,457.75288 156.53464,458.1255 C 157.17339,458.49811 157.98071,458.68442 158.95662,458.68442 C 159.95023,458.68442 160.99266,458.40497 162.0839,457.84603 C 163.1751,457.28713 164.40383,456.3068 165.7701,454.90506 L 169.15022,440.5861 z"
         style="font-size:54.50784683px;font-style:italic;font-variant:normal;font-weight:normal;font-stretch:normal;text-align:start;line-height:100%;writing-mode:lr-tb;text-anchor:start;fill:#000000;fill-opacity:1;stroke:none;stroke-width:1px;stroke-linecap:butt;stroke-linejoin:miter;stroke-opacity:1;font-family:Georgia;-inkscape-font-specification:Georgia Italic" />
      <path
         id="text3195"
         d="M 394.14338,428.41539 C 394.14335,430.77529 393.71751,433.03314 392.86585,435.18895 C 392.01414,437.34479 390.88743,439.20341 389.48572,440.76484 C 388.04848,442.36174 386.42496,443.61709 384.61515,444.53087 C 382.8053,445.44466 380.88901,445.90155 378.86628,445.90155 C 377.34033,445.90155 375.99626,445.77291 374.83408,445.51563 C 373.67188,445.25835 372.68268,444.90792 371.86649,444.46434 C 371.03254,444.00302 370.34055,443.48401 369.79051,442.90735 C 369.24046,442.33069 368.74364,441.68749 368.30006,440.97776 L 375.16677,410.84939 C 375.25548,410.44132 375.33089,410.09089 375.393,409.79809 C 375.45509,409.50536 375.48614,409.20816 375.48615,408.90648 C 375.48614,408.26776 375.37968,407.77538 375.16677,407.42934 C 374.95384,407.08338 374.6522,406.82167 374.26185,406.64419 C 373.88923,406.48454 373.41903,406.37808 372.85125,406.32482 C 372.28345,406.27162 371.70679,406.20952 371.12126,406.13851 L 371.49388,404.51498 L 381.3681,403.90283 L 381.63425,404.30206 L 377.58875,422.00114 L 377.69521,422.00114 C 379.29211,420.58169 380.69827,419.60137 381.91371,419.06017 C 383.12912,418.51902 384.31349,418.24843 385.46684,418.2484 C 388.16382,418.24843 390.28415,419.16665 391.82786,421.00307 C 393.37151,422.83954 394.14335,425.31032 394.14338,428.41539 L 394.14338,428.41539 z M 388.66065,428.54847 C 388.66063,427.60809 388.57635,426.66325 388.40781,425.71396 C 388.23923,424.7647 387.95977,423.97069 387.56943,423.3319 C 387.16131,422.65767 386.60239,422.12537 385.89268,421.73499 C 385.18292,421.34466 384.30462,421.14948 383.25778,421.14946 C 382.63674,421.14948 382.05121,421.25594 381.50118,421.46884 C 380.95111,421.68178 380.38333,421.96568 379.79781,422.32052 C 379.28323,422.63993 378.78198,423.02585 378.29405,423.47828 C 377.80609,423.93076 377.35807,424.33442 376.94998,424.68927 L 373.41017,440.47206 C 373.46339,440.82693 373.62308,441.21729 373.88924,441.64313 C 374.15538,442.06897 374.49251,442.44159 374.90062,442.76097 C 375.39742,443.16907 375.95634,443.47958 376.57737,443.6925 C 377.19838,443.90542 377.8815,444.01188 378.62674,444.01188 C 380.02846,444.01188 381.34591,443.59934 382.57909,442.77427 C 383.81224,441.94921 384.87241,440.83581 385.7596,439.43407 C 386.73547,437.90814 387.46295,436.20477 387.94205,434.32396 C 388.4211,432.44317 388.66063,430.51801 388.66065,428.54847 L 388.66065,428.54847 z"
         style="font-size:54.50784683px;font-style:italic;font-variant:normal;font-weight:normal;font-stretch:normal;text-align:start;line-height:100%;writing-mode:lr-tb;text-anchor:start;fill:#000000;fill-opacity:1;stroke:none;stroke-width:1px;stroke-linecap:butt;stroke-linejoin:miter;stroke-opacity:1;font-family:Georgia;-inkscape-font-specification:Georgia Italic" />
      <path
         id="text3199"
         d="M 308.31709,604.01844 C 305.21198,604.01844 302.75895,603.11352 300.958,601.30369 C 299.15704,599.49387 298.25656,596.92106 298.25656,593.5853 C 298.25656,591.36738 298.59812,589.2426 299.28125,587.21096 C 299.96436,585.17935 300.91807,583.37396 302.14238,581.79478 C 303.36667,580.21564 304.91478,578.9248 306.78672,577.92227 C 308.65864,576.9198 310.73906,576.41854 313.02798,576.41852 C 315.56527,576.41854 317.49487,576.95528 318.81677,578.02873 C 320.13864,579.10224 320.79958,580.45517 320.7996,582.08755 C 320.79958,583.31186 320.51125,584.38534 319.93461,585.30798 C 319.35792,586.23066 318.49293,586.69199 317.33963,586.69196 C 316.38147,586.69199 315.66286,586.45245 315.1838,585.97336 C 314.70471,585.49431 314.46518,584.962 314.46519,584.37644 C 314.46518,583.80867 314.66035,583.03241 315.05073,582.04762 C 315.44106,581.06289 315.75157,580.26887 315.98226,579.66557 C 315.78706,579.18651 315.35235,578.83609 314.67812,578.61427 C 314.00385,578.3925 313.30298,578.2816 312.57552,578.28158 C 310.1624,578.2816 308.08198,579.68777 306.33426,582.50008 C 304.58653,585.31244 303.71266,588.75909 303.71267,592.84006 C 303.71266,595.35965 304.27602,597.36022 305.40273,598.84179 C 306.52943,600.32337 308.05093,601.06416 309.96723,601.06416 C 311.68833,601.06416 313.2187,600.60283 314.55835,599.68016 C 315.89796,598.75751 317.17992,597.45337 318.40424,595.76774 L 319.9213,596.88558 C 318.69698,598.81961 317.03354,600.49193 314.93096,601.90253 C 312.82835,603.31313 310.62373,604.01844 308.31709,604.01844 L 308.31709,604.01844 z"
         style="font-size:54.50784683px;font-style:italic;font-variant:normal;font-weight:normal;font-stretch:normal;text-align:start;line-height:100%;writing-mode:lr-tb;text-anchor:start;fill:#000000;fill-opacity:1;stroke:none;stroke-width:1px;stroke-linecap:butt;stroke-linejoin:miter;stroke-opacity:1;font-family:Georgia;-inkscape-font-specification:Georgia Italic" />
    </g>
    <path
       style="font-size:64px;font-style:italic;font-variant:normal;font-weight:normal;font-stretch:normal;text-align:start;line-height:100%;writing-mode:lr-tb;text-anchor:start;fill:#000000;fill-opacity:1;stroke:none;stroke-width:1px;stroke-linecap:butt;stroke-linejoin:miter;stroke-opacity:1;font-family:Georgia;-inkscape-font-specification:Georgia Italic"
       d="M 180.05135,689.41463 L 179.8326,689.41463 C 179.37425,689.78964 178.82737,690.26359 178.19197,690.8365 C 177.55654,691.40943 176.81175,691.9563 175.9576,692.47713 C 175.14508,692.99797 174.25967,693.45109 173.30135,693.8365 C 172.343,694.22192 171.30134,694.41463 170.17635,694.41463 C 167.15551,694.41463 164.78572,693.3313 163.06697,691.16463 C 161.34822,688.99797 160.48885,686.03964 160.48885,682.28963 C 160.48885,679.70631 160.96801,677.1959 161.92635,674.75838 C 162.88468,672.3209 164.20759,670.13341 165.8951,668.19588 C 167.49926,666.34174 169.40551,664.84695 171.61385,663.7115 C 173.82217,662.57612 176.093,662.00841 178.42635,662.00838 C 179.9055,662.00841 181.31695,662.20632 182.66073,662.60213 C 184.00445,662.998 185.06174,663.44591 185.8326,663.94588 L 191.55135,662.47713 L 191.92635,662.94588 L 187.17635,683.10213 C 187.00965,683.74797 186.83778,684.53443 186.66073,685.4615 C 186.48361,686.3886 186.39507,687.07089 186.3951,687.50838 C 186.39507,688.69589 186.64507,689.49797 187.1451,689.91463 C 187.64507,690.3313 188.48882,690.53964 189.67635,690.53963 C 190.07215,690.53964 190.63465,690.47714 191.36385,690.35213 C 192.09298,690.22714 192.65548,690.09172 193.05135,689.94588 L 192.5826,691.94588 C 190.70757,692.69588 189.31174,693.23755 188.3951,693.57088 C 187.4784,693.90422 186.36382,694.07088 185.05135,694.07088 C 183.55132,694.07088 182.36383,693.63338 181.48885,692.75838 C 180.61383,691.88338 180.13466,690.7688 180.05135,689.41463 L 180.05135,689.41463 z M 184.5201,669.66463 C 184.52007,668.97716 184.44716,668.32091 184.30135,667.69588 C 184.15549,667.07091 183.85341,666.48757 183.3951,665.94588 C 182.97841,665.42507 182.40549,665.00841 181.67635,664.69588 C 180.94716,664.38341 180.03049,664.22716 178.92635,664.22713 C 177.4055,664.22716 175.92633,664.72716 174.48885,665.72713 C 173.05134,666.72716 171.75967,668.07091 170.61385,669.75838 C 169.53051,671.34174 168.64509,673.2584 167.9576,675.50838 C 167.27009,677.7584 166.92634,680.03965 166.92635,682.35213 C 166.92634,683.62297 166.99926,684.74797 167.1451,685.72713 C 167.29092,686.70631 167.57217,687.60214 167.98885,688.41463 C 168.38467,689.2063 168.95759,689.82089 169.7076,690.25838 C 170.45759,690.69589 171.4055,690.91464 172.55135,690.91463 C 173.718,690.91464 174.94196,690.5865 176.22323,689.93025 C 177.50446,689.274 178.94716,688.12297 180.55135,686.47713 L 184.5201,669.66463 z M 247.86385,678.00838 L 233.7701,678.00838 L 233.7701,692.10213 L 229.80135,692.10213 L 229.80135,678.00838 L 215.7076,678.00838 L 215.7076,674.10213 L 229.80135,674.10213 L 229.80135,660.00838 L 233.7701,660.00838 L 233.7701,674.10213 L 247.86385,674.10213 L 247.86385,678.00838 z M 300.30135,673.94588 C 300.30132,676.71672 299.80132,679.36777 298.80135,681.899 C 297.80132,684.43027 296.4784,686.61256 294.8326,688.44588 C 293.14507,690.32089 291.23883,691.79484 289.11385,692.86775 C 286.98883,693.94067 284.73883,694.47713 282.36385,694.47713 C 280.57217,694.47713 278.99405,694.32609 277.62947,694.024 C 276.26488,693.72192 275.10343,693.31047 274.1451,692.78963 C 273.16593,692.24797 272.35343,691.63859 271.7076,690.9615 C 271.06176,690.28443 270.47843,689.52922 269.9576,688.69588 L 278.0201,653.32088 C 278.12426,652.84176 278.2128,652.4303 278.28573,652.0865 C 278.35863,651.7428 278.39509,651.39384 278.3951,651.03963 C 278.39509,650.28967 278.27009,649.71155 278.0201,649.30525 C 277.77009,648.89905 277.41592,648.59176 276.9576,648.38338 C 276.52009,648.19592 275.96801,648.07092 275.30135,648.00838 C 274.63468,647.94592 273.95759,647.87301 273.2701,647.78963 L 273.7076,645.88338 L 285.30135,645.16463 L 285.61385,645.63338 L 280.86385,666.41463 L 280.98885,666.41463 C 282.86383,664.74799 284.51487,663.59695 285.94197,662.9615 C 287.36904,662.32612 288.75966,662.00841 290.11385,662.00838 C 293.28049,662.00841 295.77007,663.08654 297.5826,665.24275 C 299.39507,667.39903 300.30132,670.30007 300.30135,673.94588 L 300.30135,673.94588 z M 293.86385,674.10213 C 293.86382,672.99799 293.76486,671.8886 293.56697,670.774 C 293.36903,669.65945 293.04091,668.72716 292.5826,667.97713 C 292.10341,667.18549 291.44716,666.56049 290.61385,666.10213 C 289.78049,665.64382 288.74924,665.41466 287.5201,665.41463 C 286.79091,665.41466 286.10341,665.53966 285.4576,665.78963 C 284.81175,666.03966 284.14508,666.37299 283.4576,666.78963 C 282.85342,667.16466 282.26488,667.61778 281.69197,668.149 C 281.11904,668.68028 280.593,669.15424 280.11385,669.57088 L 275.9576,688.10213 C 276.02009,688.5188 276.20759,688.97714 276.5201,689.47713 C 276.83259,689.97714 277.22842,690.41464 277.7076,690.78963 C 278.29092,691.2688 278.94717,691.63338 279.67635,691.88338 C 280.4055,692.13338 281.20759,692.25838 282.0826,692.25838 C 283.72842,692.25838 285.27529,691.774 286.72323,690.80525 C 288.17112,689.8365 289.41591,688.52922 290.4576,686.88338 C 291.60341,685.09172 292.45757,683.09172 293.0201,680.88338 C 293.58257,678.67506 293.86382,676.41465 293.86385,674.10213 L 293.86385,674.10213 z M 353.9576,677.82088 L 325.05135,692.85213 L 325.05135,688.57088 L 349.0826,676.03963 L 325.05135,663.53963 L 325.05135,659.25838 L 353.9576,674.28963 L 353.9576,677.82088 z M 388.5826,694.41463 C 384.93676,694.41463 382.05655,693.35213 379.94197,691.22713 C 377.82739,689.10214 376.7701,686.08131 376.7701,682.16463 C 376.7701,679.56047 377.17114,677.06569 377.97323,674.68025 C 378.7753,672.29485 379.89509,670.17507 381.3326,668.32088 C 382.77009,666.46674 384.5878,664.95112 386.78573,663.774 C 388.98363,662.59695 391.42633,662.00841 394.11385,662.00838 C 397.09299,662.00841 399.35862,662.63862 400.91073,663.899 C 402.46278,665.15945 403.23882,666.74799 403.23885,668.66463 C 403.23882,670.10216 402.90028,671.36257 402.22323,672.44588 C 401.54611,673.52924 400.53049,674.0709 399.17635,674.07088 C 398.05133,674.0709 397.20758,673.78965 396.6451,673.22713 C 396.08258,672.66465 395.80133,672.03965 395.80135,671.35213 C 395.80133,670.68549 396.0305,669.77403 396.48885,668.61775 C 396.94716,667.46153 397.31174,666.52924 397.5826,665.82088 C 397.35341,665.25841 396.84299,664.84695 396.05135,664.5865 C 395.25966,664.32612 394.43675,664.19591 393.5826,664.19588 C 390.74925,664.19591 388.30654,665.84695 386.25447,669.149 C 384.20238,672.4511 383.17634,676.49797 383.17635,681.28963 C 383.17634,684.24797 383.8378,686.59693 385.16073,688.3365 C 386.48363,690.07609 388.27009,690.94589 390.5201,690.94588 C 392.54092,690.94589 394.33779,690.40422 395.91073,689.32088 C 397.48362,688.23755 398.98883,686.70631 400.42635,684.72713 L 402.2076,686.03963 C 400.77007,688.31047 398.81695,690.274 396.34823,691.93025 C 393.87946,693.5865 391.29092,694.41463 388.5826,694.41463 L 388.5826,694.41463 z M 191.55135,737.94588 C 191.55132,740.71672 191.05132,743.36777 190.05135,745.899 C 189.05132,748.43027 187.7284,750.61256 186.0826,752.44588 C 184.39507,754.32089 182.48883,755.79484 180.36385,756.86775 C 178.23883,757.94067 175.98883,758.47713 173.61385,758.47713 C 171.82217,758.47713 170.24405,758.32609 168.87947,758.024 C 167.51488,757.72192 166.35343,757.31047 165.3951,756.78963 C 164.41593,756.24797 163.60343,755.63859 162.9576,754.9615 C 162.31176,754.28443 161.72843,753.52922 161.2076,752.69588 L 169.2701,717.32088 C 169.37426,716.84176 169.4628,716.4303 169.53573,716.0865 C 169.60863,715.7428 169.64509,715.39384 169.6451,715.03963 C 169.64509,714.28967 169.52009,713.71155 169.2701,713.30525 C 169.02009,712.89905 168.66592,712.59176 168.2076,712.38338 C 167.77009,712.19592 167.21801,712.07092 166.55135,712.00838 C 165.88468,711.94592 165.20759,711.87301 164.5201,711.78963 L 164.9576,709.88338 L 176.55135,709.16463 L 176.86385,709.63338 L 172.11385,730.41463 L 172.23885,730.41463 C 174.11383,728.74799 175.76487,727.59695 177.19197,726.9615 C 178.61904,726.32612 180.00966,726.00841 181.36385,726.00838 C 184.53049,726.00841 187.02007,727.08654 188.8326,729.24275 C 190.64507,731.39903 191.55132,734.30007 191.55135,737.94588 L 191.55135,737.94588 z M 185.11385,738.10213 C 185.11382,736.99799 185.01486,735.8886 184.81697,734.774 C 184.61903,733.65945 184.29091,732.72716 183.8326,731.97713 C 183.35341,731.18549 182.69716,730.56049 181.86385,730.10213 C 181.03049,729.64382 179.99924,729.41466 178.7701,729.41463 C 178.04091,729.41466 177.35341,729.53966 176.7076,729.78963 C 176.06175,730.03966 175.39508,730.37299 174.7076,730.78963 C 174.10342,731.16466 173.51488,731.61778 172.94197,732.149 C 172.36904,732.68028 171.843,733.15424 171.36385,733.57088 L 167.2076,752.10213 C 167.27009,752.5188 167.45759,752.97714 167.7701,753.47713 C 168.08259,753.97714 168.47842,754.41464 168.9576,754.78963 C 169.54092,755.2688 170.19717,755.63338 170.92635,755.88338 C 171.6555,756.13338 172.45759,756.25838 173.3326,756.25838 C 174.97842,756.25838 176.52529,755.774 177.97323,754.80525 C 179.42112,753.8365 180.66591,752.52922 181.7076,750.88338 C 182.85341,749.09172 183.70757,747.09172 184.2701,744.88338 C 184.83257,742.67506 185.11382,740.41465 185.11385,738.10213 L 185.11385,738.10213 z M 246.73885,742.00838 L 232.6451,742.00838 L 232.6451,756.10213 L 228.67635,756.10213 L 228.67635,742.00838 L 214.5826,742.00838 L 214.5826,738.10213 L 228.67635,738.10213 L 228.67635,724.00838 L 232.6451,724.00838 L 232.6451,738.10213 L 246.73885,738.10213 L 246.73885,742.00838 z M 279.8326,758.41463 C 276.18676,758.41463 273.30655,757.35213 271.19197,755.22713 C 269.07739,753.10214 268.0201,750.08131 268.0201,746.16463 C 268.0201,743.56047 268.42114,741.06569 269.22323,738.68025 C 270.0253,736.29485 271.14509,734.17507 272.5826,732.32088 C 274.02009,730.46674 275.8378,728.95112 278.03573,727.774 C 280.23363,726.59695 282.67633,726.00841 285.36385,726.00838 C 288.34299,726.00841 290.60862,726.63862 292.16073,727.899 C 293.71278,729.15945 294.48882,730.74799 294.48885,732.66463 C 294.48882,734.10216 294.15028,735.36257 293.47323,736.44588 C 292.79611,737.52924 291.78049,738.0709 290.42635,738.07088 C 289.30133,738.0709 288.45758,737.78965 287.8951,737.22713 C 287.33258,736.66465 287.05133,736.03965 287.05135,735.35213 C 287.05133,734.68549 287.2805,733.77403 287.73885,732.61775 C 288.19716,731.46153 288.56174,730.52924 288.8326,729.82088 C 288.60341,729.25841 288.09299,728.84695 287.30135,728.5865 C 286.50966,728.32612 285.68675,728.19591 284.8326,728.19588 C 281.99925,728.19591 279.55654,729.84695 277.50447,733.149 C 275.45238,736.4511 274.42634,740.49797 274.42635,745.28963 C 274.42634,748.24797 275.0878,750.59693 276.41073,752.3365 C 277.73363,754.07609 279.52009,754.94589 281.7701,754.94588 C 283.79092,754.94589 285.58779,754.40422 287.16073,753.32088 C 288.73362,752.23755 290.23883,750.70631 291.67635,748.72713 L 293.4576,750.03963 C 292.02007,752.31047 290.06695,754.274 287.59823,755.93025 C 285.12946,757.5865 282.54092,758.41463 279.8326,758.41463 L 279.8326,758.41463 z M 346.3326,741.82088 L 317.42635,756.85213 L 317.42635,752.57088 L 341.4576,740.03963 L 317.42635,727.53963 L 317.42635,723.25838 L 346.3326,738.28963 L 346.3326,741.82088 z M 388.80135,753.41463 L 388.5826,753.41463 C 388.12425,753.78964 387.57737,754.26359 386.94197,754.8365 C 386.30654,755.40943 385.56175,755.9563 384.7076,756.47713 C 383.89508,756.99797 383.00967,757.45109 382.05135,757.8365 C 381.093,758.22192 380.05134,758.41463 378.92635,758.41463 C 375.90551,758.41463 373.53572,757.3313 371.81697,755.16463 C 370.09822,752.99797 369.23885,750.03964 369.23885,746.28963 C 369.23885,743.70631 369.71801,741.1959 370.67635,738.75838 C 371.63468,736.3209 372.95759,734.13341 374.6451,732.19588 C 376.24926,730.34174 378.15551,728.84695 380.36385,727.7115 C 382.57217,726.57612 384.843,726.00841 387.17635,726.00838 C 388.6555,726.00841 390.06695,726.20632 391.41073,726.60213 C 392.75445,726.998 393.81174,727.44591 394.5826,727.94588 L 400.30135,726.47713 L 400.67635,726.94588 L 395.92635,747.10213 C 395.75965,747.74797 395.58778,748.53443 395.41073,749.4615 C 395.23361,750.3886 395.14507,751.07089 395.1451,751.50838 C 395.14507,752.69589 395.39507,753.49797 395.8951,753.91463 C 396.39507,754.3313 397.23882,754.53964 398.42635,754.53963 C 398.82215,754.53964 399.38465,754.47714 400.11385,754.35213 C 400.84298,754.22714 401.40548,754.09172 401.80135,753.94588 L 401.3326,755.94588 C 399.45757,756.69588 398.06174,757.23755 397.1451,757.57088 C 396.2284,757.90422 395.11382,758.07088 393.80135,758.07088 C 392.30132,758.07088 391.11383,757.63338 390.23885,756.75838 C 389.36383,755.88338 388.88466,754.7688 388.80135,753.41463 L 388.80135,753.41463 z M 393.2701,733.66463 C 393.27007,732.97716 393.19716,732.32091 393.05135,731.69588 C 392.90549,731.07091 392.60341,730.48757 392.1451,729.94588 C 391.72841,729.42507 391.15549,729.00841 390.42635,728.69588 C 389.69716,728.38341 388.78049,728.22716 387.67635,728.22713 C 386.1555,728.22716 384.67633,728.72716 383.23885,729.72713 C 381.80134,730.72716 380.50967,732.07091 379.36385,733.75838 C 378.28051,735.34174 377.39509,737.2584 376.7076,739.50838 C 376.02009,741.7584 375.67634,744.03965 375.67635,746.35213 C 375.67634,747.62297 375.74926,748.74797 375.8951,749.72713 C 376.04092,750.70631 376.32217,751.60214 376.73885,752.41463 C 377.13467,753.2063 377.70759,753.82089 378.4576,754.25838 C 379.20759,754.69589 380.1555,754.91464 381.30135,754.91463 C 382.468,754.91464 383.69196,754.5865 384.97323,753.93025 C 386.25446,753.274 387.69716,752.12297 389.30135,750.47713 L 393.2701,733.66463 z M 172.2076,822.41463 C 168.56176,822.41463 165.68155,821.35213 163.56697,819.22713 C 161.45239,817.10214 160.3951,814.08131 160.3951,810.16463 C 160.3951,807.56047 160.79614,805.06569 161.59823,802.68025 C 162.4003,800.29485 163.52009,798.17507 164.9576,796.32088 C 166.39509,794.46674 168.2128,792.95112 170.41073,791.774 C 172.60863,790.59695 175.05133,790.00841 177.73885,790.00838 C 180.71799,790.00841 182.98362,790.63862 184.53573,791.899 C 186.08778,793.15945 186.86382,794.74799 186.86385,796.66463 C 186.86382,798.10216 186.52528,799.36257 185.84823,800.44588 C 185.17111,801.52924 184.15549,802.0709 182.80135,802.07088 C 181.67633,802.0709 180.83258,801.78965 180.2701,801.22713 C 179.70758,800.66465 179.42633,800.03965 179.42635,799.35213 C 179.42633,798.68549 179.6555,797.77403 180.11385,796.61775 C 180.57216,795.46153 180.93674,794.52924 181.2076,793.82088 C 180.97841,793.25841 180.46799,792.84695 179.67635,792.5865 C 178.88466,792.32612 178.06175,792.19591 177.2076,792.19588 C 174.37425,792.19591 171.93154,793.84695 169.87947,797.149 C 167.82738,800.4511 166.80134,804.49797 166.80135,809.28963 C 166.80134,812.24797 167.4628,814.59693 168.78573,816.3365 C 170.10863,818.07609 171.89509,818.94589 174.1451,818.94588 C 176.16592,818.94589 177.96279,818.40422 179.53573,817.32088 C 181.10862,816.23755 182.61383,814.70631 184.05135,812.72713 L 185.8326,814.03963 C 184.39507,816.31047 182.44195,818.274 179.97323,819.93025 C 177.50446,821.5865 174.91592,822.41463 172.2076,822.41463 L 172.2076,822.41463 z M 240.23885,806.00838 L 226.1451,806.00838 L 226.1451,820.10213 L 222.17635,820.10213 L 222.17635,806.00838 L 208.0826,806.00838 L 208.0826,802.10213 L 222.17635,802.10213 L 222.17635,788.00838 L 226.1451,788.00838 L 226.1451,802.10213 L 240.23885,802.10213 L 240.23885,806.00838 z M 281.17635,817.41463 L 280.9576,817.41463 C 280.49925,817.78964 279.95237,818.26359 279.31697,818.8365 C 278.68154,819.40943 277.93675,819.9563 277.0826,820.47713 C 276.27008,820.99797 275.38467,821.45109 274.42635,821.8365 C 273.468,822.22192 272.42634,822.41463 271.30135,822.41463 C 268.28051,822.41463 265.91072,821.3313 264.19197,819.16463 C 262.47322,816.99797 261.61385,814.03964 261.61385,810.28963 C 261.61385,807.70631 262.09301,805.1959 263.05135,802.75838 C 264.00968,800.3209 265.33259,798.13341 267.0201,796.19588 C 268.62426,794.34174 270.53051,792.84695 272.73885,791.7115 C 274.94717,790.57612 277.218,790.00841 279.55135,790.00838 C 281.0305,790.00841 282.44195,790.20632 283.78573,790.60213 C 285.12945,790.998 286.18674,791.44591 286.9576,791.94588 L 292.67635,790.47713 L 293.05135,790.94588 L 288.30135,811.10213 C 288.13465,811.74797 287.96278,812.53443 287.78573,813.4615 C 287.60861,814.3886 287.52007,815.07089 287.5201,815.50838 C 287.52007,816.69589 287.77007,817.49797 288.2701,817.91463 C 288.77007,818.3313 289.61382,818.53964 290.80135,818.53963 C 291.19715,818.53964 291.75965,818.47714 292.48885,818.35213 C 293.21798,818.22714 293.78048,818.09172 294.17635,817.94588 L 293.7076,819.94588 C 291.83257,820.69588 290.43674,821.23755 289.5201,821.57088 C 288.6034,821.90422 287.48882,822.07088 286.17635,822.07088 C 284.67632,822.07088 283.48883,821.63338 282.61385,820.75838 C 281.73883,819.88338 281.25966,818.7688 281.17635,817.41463 L 281.17635,817.41463 z M 285.6451,797.66463 C 285.64507,796.97716 285.57216,796.32091 285.42635,795.69588 C 285.28049,795.07091 284.97841,794.48757 284.5201,793.94588 C 284.10341,793.42507 283.53049,793.00841 282.80135,792.69588 C 282.07216,792.38341 281.15549,792.22716 280.05135,792.22713 C 278.5305,792.22716 277.05133,792.72716 275.61385,793.72713 C 274.17634,794.72716 272.88467,796.07091 271.73885,797.75838 C 270.65551,799.34174 269.77009,801.2584 269.0826,803.50838 C 268.39509,805.7584 268.05134,808.03965 268.05135,810.35213 C 268.05134,811.62297 268.12426,812.74797 268.2701,813.72713 C 268.41592,814.70631 268.69717,815.60214 269.11385,816.41463 C 269.50967,817.2063 270.08259,817.82089 270.8326,818.25838 C 271.58259,818.69589 272.5305,818.91464 273.67635,818.91463 C 274.843,818.91464 276.06696,818.5865 277.34823,817.93025 C 278.62946,817.274 280.07216,816.12297 281.67635,814.47713 L 285.6451,797.66463 z M 347.4576,805.82088 L 318.55135,820.85213 L 318.55135,816.57088 L 342.5826,804.03963 L 318.55135,791.53963 L 318.55135,787.25838 L 347.4576,802.28963 L 347.4576,805.82088 z M 401.42635,801.94588 C 401.42632,804.71672 400.92632,807.36777 399.92635,809.899 C 398.92632,812.43027 397.6034,814.61256 395.9576,816.44588 C 394.27007,818.32089 392.36383,819.79484 390.23885,820.86775 C 388.11383,821.94067 385.86383,822.47713 383.48885,822.47713 C 381.69717,822.47713 380.11905,822.32609 378.75447,822.024 C 377.38988,821.72192 376.22843,821.31047 375.2701,820.78963 C 374.29093,820.24797 373.47843,819.63859 372.8326,818.9615 C 372.18676,818.28443 371.60343,817.52922 371.0826,816.69588 L 379.1451,781.32088 C 379.24926,780.84176 379.3378,780.4303 379.41073,780.0865 C 379.48363,779.7428 379.52009,779.39384 379.5201,779.03963 C 379.52009,778.28967 379.39509,777.71155 379.1451,777.30525 C 378.89509,776.89905 378.54092,776.59176 378.0826,776.38338 C 377.64509,776.19592 377.09301,776.07092 376.42635,776.00838 C 375.75968,775.94592 375.08259,775.87301 374.3951,775.78963 L 374.8326,773.88338 L 386.42635,773.16463 L 386.73885,773.63338 L 381.98885,794.41463 L 382.11385,794.41463 C 383.98883,792.74799 385.63987,791.59695 387.06697,790.9615 C 388.49404,790.32612 389.88466,790.00841 391.23885,790.00838 C 394.40549,790.00841 396.89507,791.08654 398.7076,793.24275 C 400.52007,795.39903 401.42632,798.30007 401.42635,801.94588 L 401.42635,801.94588 z M 394.98885,802.10213 C 394.98882,800.99799 394.88986,799.8886 394.69197,798.774 C 394.49403,797.65945 394.16591,796.72716 393.7076,795.97713 C 393.22841,795.18549 392.57216,794.56049 391.73885,794.10213 C 390.90549,793.64382 389.87424,793.41466 388.6451,793.41463 C 387.91591,793.41466 387.22841,793.53966 386.5826,793.78963 C 385.93675,794.03966 385.27008,794.37299 384.5826,794.78963 C 383.97842,795.16466 383.38988,795.61778 382.81697,796.149 C 382.24404,796.68028 381.718,797.15424 381.23885,797.57088 L 377.0826,816.10213 C 377.14509,816.5188 377.33259,816.97714 377.6451,817.47713 C 377.95759,817.97714 378.35342,818.41464 378.8326,818.78963 C 379.41592,819.2688 380.07217,819.63338 380.80135,819.88338 C 381.5305,820.13338 382.33259,820.25838 383.2076,820.25838 C 384.85342,820.25838 386.40029,819.774 387.84823,818.80525 C 389.29612,817.8365 390.54091,816.52922 391.5826,814.88338 C 392.72841,813.09172 393.58257,811.09172 394.1451,808.88338 C 394.70757,806.67506 394.98882,804.41465 394.98885,802.10213 L 394.98885,802.10213 z"
       id="text3203" />
  </g>
</svg>
